<?xml version="1.0" encoding="UTF-8"?>
<svg xmlns="http://www.w3.org/2000/svg" xmlns:xlink="http://www.w3.org/1999/xlink" id="logo" width="169" height="123.702" viewBox="0 0 169 123.702">
  <defs>
    <clipPath id="clip-path">
      <rect id="Rectangle_6" data-name="Rectangle 6" width="169" height="123.702" fill="none"></rect>
    </clipPath>
  </defs>
  <g id="Groupe_1" data-name="Groupe 1" clip-path="url(#clip-path)">
    <path id="Tracé_1" data-name="Tracé 1" d="M0,22.026l6.266-6.262V33.356h.1c1.385-1.8,3.9-3.185,7.447-3.185,4.413,0,9.5,1.848,9.5,9.4V56.776H17.049V41.365c0-3.6-1.438-5.134-4.622-5.134-4.723,0-6.161,4-6.161,7.189V56.776H0Z" transform="translate(0 -4.659)" fill="#e30613"></path>
    <path id="Tracé_2" data-name="Tracé 2" d="M19.059,94.729c-.772-1.7-2.827-3.7-6.524-3.7-2.927-.051-4.773.975-4.773,2.518,0,4.518,16.385.666,16.385,10.476,0,6.263-5.6,9.09-11.557,9.09-6.112,0-10.272-2.1-12.585-4.727l4.725-3.643c1.436,2.1,4.159,3.234,7.5,3.234,2.978,0,5.032-1.646,5.032-3.033,0-4.415-16.072-.766-16.072-10.627,0-5.857,5.084-8.425,11.5-8.425,6.213,0,9.5,3.183,10.734,4.723Z" transform="translate(-0.002 -25.385)" fill="#e30613"></path>
    <path id="Tracé_3" data-name="Tracé 3" d="M119.038,99.506c0,4.054,2.262,7.858,6.728,7.858s6.726-3.8,6.726-7.858-2.258-7.86-6.726-7.86-6.728,3.8-6.728,7.86m20.031,0c0,7.753-4.88,13.607-13.3,13.607s-13.3-5.854-13.3-13.607,4.877-13.612,13.3-13.612,13.3,5.855,13.3,13.612" transform="translate(-33.238 -25.385)" fill="#e30613"></path>
    <path id="Tracé_4" data-name="Tracé 4" d="M158.85,41.351a5.883,5.883,0,0,1,5.906,5.135H152.123a6.685,6.685,0,0,1,6.728-5.135m3.9,15.581a9.838,9.838,0,0,1-3.9.747,6.6,6.6,0,0,1-6.728-6.367h19.206c0-9.294-3.8-15.1-12.478-15.1-8.424,0-13.3,5.854-13.3,13.611,0,6.979,3.957,12.4,10.887,13.419Z" transform="translate(-43.015 -10.703)" fill="#e30613"></path>
    <path id="Tracé_5" data-name="Tracé 5" d="M185.459,91.031a5.88,5.88,0,0,1,5.906,5.133H178.737a6.679,6.679,0,0,1,6.723-5.133m3.9,15.582a9.887,9.887,0,0,1-3.9.751,6.6,6.6,0,0,1-6.723-6.372h19.2c0-9.3-3.8-15.1-12.48-15.1-8.418,0-13.3,5.857-13.3,13.612,0,6.981,3.962,12.4,10.89,13.417Z" transform="translate(-50.879 -25.385)" fill="#e30613"></path>
    <path id="Tracé_6" data-name="Tracé 6" d="M56.522,49.689a11.283,11.283,0,0,1-2.98.922l-3.441.72c-2.361.465-4.313,1.131-4.313,3.6,0,1.953,1.8,3.238,4.055,3.238,2.929,0,6.68-1.439,6.68-4.778Zm6.265,8.63a7.539,7.539,0,0,0,.974,4.368H57.138a4.923,4.923,0,0,1-.616-2.368A13.118,13.118,0,0,1,48.049,63.3c-4.931,0-8.834-3.134-8.834-8.17,0-5.086,4.054-7.345,7.907-8.113l2.62-.514a64.745,64.745,0,0,0,6.78-1.54v-.771c0-2.567-2.211-3.285-4.932-3.285-3.646,0-4.828,1.074-4.828,3.9L40.5,44.553c0-6.108,5.389-8.474,11.091-8.474,5.6,0,11.2,1.131,11.2,8.528Z" transform="translate(-11.589 -10.663)" fill="#e30613"></path>
    <path id="Tracé_7" data-name="Tracé 7" d="M56.683,99.371a11.45,11.45,0,0,1-2.98.924l-3.439.719c-2.361.46-4.314,1.13-4.314,3.59,0,1.957,1.8,3.241,4.058,3.241,2.925,0,6.675-1.434,6.675-4.781ZM62.949,108a7.528,7.528,0,0,0,.974,4.37H57.3A4.935,4.935,0,0,1,56.683,110a13.11,13.11,0,0,1-8.473,2.981c-4.93,0-8.835-3.13-8.835-8.166,0-5.084,4.058-7.347,7.908-8.116l2.621-.515a64.283,64.283,0,0,0,6.778-1.536v-.769c0-2.569-2.211-3.288-4.931-3.288-3.646,0-4.829,1.075-4.829,3.9l-6.262-.26c0-6.108,5.391-8.475,11.091-8.475,5.6,0,11.2,1.129,11.2,8.53Z" transform="translate(-11.637 -25.344)" fill="#e30613"></path>
    <path id="Tracé_8" data-name="Tracé 8" d="M76.674,86.766H83.3l5.186,17.977h.1l5.188-17.977h6.628l-8.58,25.988H85.252Z" transform="translate(-22.66 -25.643)" fill="#e30613"></path>
    <path id="Tracé_9" data-name="Tracé 9" d="M104.3,63.078H98.028V60.5h-.1c-1.388,1.8-3.9,3.188-7.447,3.188-4.414,0-9.5-1.85-9.5-9.4V37.09h6.265V52.5c0,3.6,1.438,5.138,4.622,5.138,4.723,0,6.161-3.443,6.161-6.576V37.09H104.3Z" transform="translate(-23.933 -10.961)" fill="#e30613"></path>
    <path id="Tracé_10" data-name="Tracé 10" d="M162.9,111.064V97.289h-6.266V117.33Z" transform="translate(-46.292 -28.753)" fill="#e30613"></path>
    <path id="Tracé_11" data-name="Tracé 11" d="M124.713,52.275c0,2.475.688,4.306,2.466,5.331l4.872-4.875c-.869-.483-1.07-1.434-1.07-2.823V36.764h5.595V32.245h-5.595V18.719l-6.268,6.267v7.259h-3.8v4.519h3.8Z" transform="translate(-35.735 -5.532)" fill="#e30613"></path>
    <rect id="Rectangle_1" data-name="Rectangle 1" width="6.266" height="6.265" transform="translate(110.346 58.048)" fill="#e30613"></rect>
    <rect id="Rectangle_2" data-name="Rectangle 2" width="2.9" height="16.921" transform="translate(0.001 96.925)" fill="#e30613"></rect>
    <path id="Tracé_12" data-name="Tracé 12" d="M19.632,153.743a6.971,6.971,0,0,1-5.847,3.046c-3.14,0-6.16-1.989-6.16-6.4,0-4.026,2.588-6.3,5.968-6.3a5.41,5.41,0,0,1,4.723,2.254,8.988,8.988,0,0,1,1.222,4.671H10.669a3.235,3.235,0,0,0,3.4,2.973,3.5,3.5,0,0,0,3.117-1.653Zm-3.26-4.839a2.566,2.566,0,0,0-2.685-2.517,2.837,2.837,0,0,0-2.923,2.517Z" transform="translate(-2.253 -42.583)" fill="#e30613"></path>
    <path id="Tracé_13" data-name="Tracé 13" d="M37.579,137.588h6.063a8.1,8.1,0,0,1,5.009,1.319c2.828,1.989,3.26,5.392,3.26,7.284,0,2.9-.983,5.849-3.476,7.288-1.678.983-3.45,1.007-5.441,1.03H37.579Zm3.164,2.876v11.194h1.343a11.27,11.27,0,0,0,3.953-.385c1.223-.48,2.518-1.534,2.518-5.056,0-1.583-.241-4.17-2.588-5.3-.912-.409-1.414-.435-3.548-.458Z" transform="translate(-11.106 -40.662)" fill="#e30613"></path>
    <path id="Tracé_14" data-name="Tracé 14" d="M72.6,151.822a6.975,6.975,0,0,1-5.847,3.045c-3.14,0-6.16-1.989-6.16-6.4,0-4.025,2.588-6.3,5.968-6.3a5.4,5.4,0,0,1,4.721,2.255,8.978,8.978,0,0,1,1.223,4.671H63.635a3.235,3.235,0,0,0,3.4,2.972,3.5,3.5,0,0,0,3.116-1.653Zm-3.26-4.84a2.566,2.566,0,0,0-2.685-2.518,2.837,2.837,0,0,0-2.922,2.518Zm.7-9.4-2.588,3.189H65.288l1.2-3.189Z" transform="translate(-17.907 -40.662)" fill="#e30613"></path>
    <path id="Tracé_15" data-name="Tracé 15" d="M80.947,144.445H83.8v1.1a4.245,4.245,0,0,1,3.284-1.461c3.522,0,5.439,3.164,5.439,6.471,0,3.571-2.228,6.232-5.439,6.232a4.662,4.662,0,0,1-3.284-1.344v4.89H80.947Zm5.752,9.634c1.39,0,2.9-.959,2.9-3.667,0-3-2.085-3.569-2.947-3.569-1.319,0-2.828.959-2.876,3.523-.047,2.468,1.318,3.712,2.924,3.712" transform="translate(-23.923 -42.583)" fill="#e30613"></path>
    <path id="Tracé_16" data-name="Tracé 16" d="M100.186,147.969a3.888,3.888,0,0,1,.48-1.8c1.15-2.087,4-2.087,4.769-2.087a7.29,7.29,0,0,1,3.595.766c1.414.864,1.437,1.991,1.437,3.285v6.35a2.512,2.512,0,0,0,.528,1.941h-3.4c-.023-.286-.071-.767-.071-.935a5.645,5.645,0,0,1-3.548,1.223c-2.708,0-4.336-1.677-4.336-3.738a3.636,3.636,0,0,1,.383-1.632c.863-1.724,2.708-2.107,3.858-2.323a27.389,27.389,0,0,0,3.715-.886c0-.6-.047-1.823-2.037-1.823a2.558,2.558,0,0,0-2.132.766,1.432,1.432,0,0,0-.287,1.057Zm7.405,2.492a8.252,8.252,0,0,1-2.516.719c-1.031.146-2.4.384-2.4,1.656,0,.934.791,1.413,1.942,1.413a2.966,2.966,0,0,0,2.8-1.391,2.417,2.417,0,0,0,.168-1.079Z" transform="translate(-29.446 -42.583)" fill="#e30613"></path>
    <path id="Tracé_17" data-name="Tracé 17" d="M121.443,144.483v1.7c.36-.623,1.15-2.037,3.835-1.966v2.95a4.384,4.384,0,0,0-2.59.718c-1.222.934-1.245,2.158-1.245,4.146v4.434h-2.78V144.483Z" transform="translate(-35.069 -42.622)" fill="#e30613"></path>
    <path id="Tracé_18" data-name="Tracé 18" d="M134.827,144.88v5.415c0,1.486,0,2.133,1.365,2.133a3.958,3.958,0,0,0,1.2-.144v2.423a11.83,11.83,0,0,1-2.085.19c-.6,0-2.611,0-3.164-1.462a7.813,7.813,0,0,1-.191-2.444V144.88H130.2v-2.063h1.751v-4.24h2.876v4.24h2.564v2.063Z" transform="translate(-38.479 -40.954)" fill="#e30613"></path>
    <path id="Tracé_19" data-name="Tracé 19" d="M154.6,153.743a6.969,6.969,0,0,1-5.848,3.046c-3.139,0-6.158-1.989-6.158-6.4,0-4.026,2.589-6.3,5.967-6.3a5.409,5.409,0,0,1,4.722,2.254,9,9,0,0,1,1.222,4.671h-8.868a3.235,3.235,0,0,0,3.4,2.973,3.5,3.5,0,0,0,3.117-1.653Zm-3.26-4.839a2.565,2.565,0,0,0-2.683-2.517,2.838,2.838,0,0,0-2.924,2.517Z" transform="translate(-42.141 -42.583)" fill="#e30613"></path>
    <path id="Tracé_20" data-name="Tracé 20" d="M162.913,144.444h2.852v1.344a5.148,5.148,0,0,1,3.787-1.7,3.7,3.7,0,0,1,3.331,1.846,4.673,4.673,0,0,1,3.834-1.846,4.151,4.151,0,0,1,3.163,1.224,4.827,4.827,0,0,1,.935,3.57v7.55h-2.852v-6.614c0-1.126.168-3.019-2.013-3.019a2.4,2.4,0,0,0-2.037,1.126,5.179,5.179,0,0,0-.623,2.876v5.632h-2.852v-6.686a5.8,5.8,0,0,0-.1-1.533A1.827,1.827,0,0,0,168.5,146.8a2.577,2.577,0,0,0-2.2,1.388,6.787,6.787,0,0,0-.526,3.236v5.009h-2.852Z" transform="translate(-48.147 -42.583)" fill="#e30613"></path>
    <path id="Tracé_21" data-name="Tracé 21" d="M203.856,153.743a6.971,6.971,0,0,1-5.847,3.046c-3.141,0-6.16-1.989-6.16-6.4,0-4.026,2.587-6.3,5.967-6.3a5.412,5.412,0,0,1,4.723,2.254,8.989,8.989,0,0,1,1.222,4.671h-8.868a3.235,3.235,0,0,0,3.4,2.973,3.5,3.5,0,0,0,3.117-1.653ZM200.6,148.9a2.566,2.566,0,0,0-2.685-2.517,2.836,2.836,0,0,0-2.922,2.517Z" transform="translate(-56.698 -42.583)" fill="#e30613"></path>
    <path id="Tracé_22" data-name="Tracé 22" d="M212.134,144.444h2.9v1.415a3.333,3.333,0,0,1,.934-.933,4.985,4.985,0,0,1,2.757-.84,3.923,3.923,0,0,1,3.139,1.438c.743,1.007.743,2.3.743,3.858v7.047h-2.852v-6.111a8.5,8.5,0,0,0-.1-1.82,1.963,1.963,0,0,0-1.965-1.609,2.527,2.527,0,0,0-2.207,1.343,6.9,6.9,0,0,0-.454,3v5.2h-2.9Z" transform="translate(-62.693 -42.583)" fill="#e30613"></path>
    <path id="Tracé_23" data-name="Tracé 23" d="M234.054,144.88v5.415c0,1.486,0,2.133,1.366,2.133a3.962,3.962,0,0,0,1.2-.144v2.423a11.825,11.825,0,0,1-2.085.19c-.6,0-2.612,0-3.162-1.462a7.758,7.758,0,0,1-.192-2.444V144.88h-1.751v-2.063h1.751v-4.24h2.876v4.24h2.564v2.063Z" transform="translate(-67.804 -40.954)" fill="#e30613"></path>
    <path id="Tracé_24" data-name="Tracé 24" d="M0,22.026l6.266-6.262V33.356h.1c1.385-1.8,3.9-3.185,7.447-3.185,4.413,0,9.5,1.848,9.5,9.4V56.776H17.049V41.365c0-3.6-1.438-5.134-4.622-5.134-4.723,0-6.161,4-6.161,7.189V56.776H0Z" transform="translate(0 -4.659)" fill="#e30613"></path>
    <path id="Tracé_25" data-name="Tracé 25" d="M19.059,94.729c-.772-1.7-2.827-3.7-6.524-3.7-2.927-.051-4.773.975-4.773,2.518,0,4.518,16.385.666,16.385,10.476,0,6.263-5.6,9.09-11.557,9.09-6.112,0-10.272-2.1-12.585-4.727l4.725-3.643c1.436,2.1,4.159,3.234,7.5,3.234,2.978,0,5.032-1.646,5.032-3.033,0-4.415-16.072-.766-16.072-10.627,0-5.857,5.084-8.425,11.5-8.425,6.213,0,9.5,3.183,10.734,4.723Z" transform="translate(-0.002 -25.385)" fill="#e30613"></path>
    <path id="Tracé_26" data-name="Tracé 26" d="M119.038,99.506c0,4.054,2.262,7.858,6.728,7.858s6.726-3.8,6.726-7.858-2.258-7.86-6.726-7.86-6.728,3.8-6.728,7.86m20.031,0c0,7.753-4.88,13.607-13.3,13.607s-13.3-5.854-13.3-13.607,4.877-13.612,13.3-13.612,13.3,5.855,13.3,13.612" transform="translate(-33.238 -25.385)" fill="#e30613"></path>
    <path id="Tracé_27" data-name="Tracé 27" d="M158.85,41.351a5.883,5.883,0,0,1,5.906,5.135H152.123a6.685,6.685,0,0,1,6.728-5.135m3.9,15.581a9.838,9.838,0,0,1-3.9.747,6.6,6.6,0,0,1-6.728-6.367h19.206c0-9.294-3.8-15.1-12.478-15.1-8.424,0-13.3,5.854-13.3,13.611,0,6.979,3.957,12.4,10.887,13.419Z" transform="translate(-43.015 -10.703)" fill="#e30613"></path>
    <path id="Tracé_28" data-name="Tracé 28" d="M185.459,91.031a5.88,5.88,0,0,1,5.906,5.133H178.737a6.679,6.679,0,0,1,6.723-5.133m3.9,15.582a9.887,9.887,0,0,1-3.9.751,6.6,6.6,0,0,1-6.723-6.372h19.2c0-9.3-3.8-15.1-12.48-15.1-8.418,0-13.3,5.857-13.3,13.612,0,6.981,3.962,12.4,10.89,13.417Z" transform="translate(-50.879 -25.385)" fill="#e30613"></path>
    <path id="Tracé_29" data-name="Tracé 29" d="M56.522,49.689a11.283,11.283,0,0,1-2.98.922l-3.441.72c-2.361.465-4.313,1.131-4.313,3.6,0,1.953,1.8,3.238,4.055,3.238,2.929,0,6.68-1.439,6.68-4.778Zm6.265,8.63a7.539,7.539,0,0,0,.974,4.368H57.138a4.923,4.923,0,0,1-.616-2.368A13.118,13.118,0,0,1,48.049,63.3c-4.931,0-8.834-3.134-8.834-8.17,0-5.086,4.054-7.345,7.907-8.113l2.62-.514a64.745,64.745,0,0,0,6.78-1.54v-.771c0-2.567-2.211-3.285-4.932-3.285-3.646,0-4.828,1.074-4.828,3.9L40.5,44.553c0-6.108,5.389-8.474,11.091-8.474,5.6,0,11.2,1.131,11.2,8.528Z" transform="translate(-11.589 -10.663)" fill="#e30613"></path>
    <path id="Tracé_30" data-name="Tracé 30" d="M56.683,99.371a11.45,11.45,0,0,1-2.98.924l-3.439.719c-2.361.46-4.314,1.13-4.314,3.59,0,1.957,1.8,3.241,4.058,3.241,2.925,0,6.675-1.434,6.675-4.781ZM62.949,108a7.528,7.528,0,0,0,.974,4.37H57.3A4.935,4.935,0,0,1,56.683,110a13.11,13.11,0,0,1-8.473,2.981c-4.93,0-8.835-3.13-8.835-8.166,0-5.084,4.058-7.347,7.908-8.116l2.621-.515a64.283,64.283,0,0,0,6.778-1.536v-.769c0-2.569-2.211-3.288-4.931-3.288-3.646,0-4.829,1.075-4.829,3.9l-6.262-.26c0-6.108,5.391-8.475,11.091-8.475,5.6,0,11.2,1.129,11.2,8.53Z" transform="translate(-11.637 -25.344)" fill="#e30613"></path>
    <path id="Tracé_31" data-name="Tracé 31" d="M76.674,86.766H83.3l5.186,17.977h.1l5.188-17.977h6.628l-8.58,25.988H85.252Z" transform="translate(-22.66 -25.643)" fill="#e30613"></path>
    <path id="Tracé_32" data-name="Tracé 32" d="M104.3,63.078H98.028V60.5h-.1c-1.388,1.8-3.9,3.188-7.447,3.188-4.414,0-9.5-1.85-9.5-9.4V37.09h6.265V52.5c0,3.6,1.438,5.138,4.622,5.138,4.723,0,6.161-3.443,6.161-6.576V37.09H104.3Z" transform="translate(-23.933 -10.961)" fill="#e30613"></path>
    <path id="Tracé_33" data-name="Tracé 33" d="M162.9,111.064V97.289h-6.266V117.33Z" transform="translate(-46.292 -28.753)" fill="#e30613"></path>
    <path id="Tracé_34" data-name="Tracé 34" d="M124.713,52.275c0,2.475.688,4.306,2.466,5.331l4.872-4.875c-.869-.483-1.07-1.434-1.07-2.823V36.764h5.595V32.245h-5.595V18.719l-6.268,6.267v7.259h-3.8v4.519h3.8Z" transform="translate(-35.735 -5.532)" fill="#e30613"></path>
    <rect id="Rectangle_3" data-name="Rectangle 3" width="6.266" height="6.265" transform="translate(110.346 58.048)" fill="#e30613"></rect>
    <rect id="Rectangle_4" data-name="Rectangle 4" width="2.9" height="16.921" transform="translate(0.001 96.925)" fill="#e30613"></rect>
    <path id="Tracé_35" data-name="Tracé 35" d="M19.632,153.743a6.971,6.971,0,0,1-5.847,3.046c-3.14,0-6.16-1.989-6.16-6.4,0-4.026,2.588-6.3,5.968-6.3a5.41,5.41,0,0,1,4.723,2.254,8.988,8.988,0,0,1,1.222,4.671H10.669a3.235,3.235,0,0,0,3.4,2.973,3.5,3.5,0,0,0,3.117-1.653Zm-3.26-4.839a2.566,2.566,0,0,0-2.685-2.517,2.837,2.837,0,0,0-2.923,2.517Z" transform="translate(-2.253 -42.583)" fill="#e30613"></path>
    <path id="Tracé_36" data-name="Tracé 36" d="M37.579,137.588h6.063a8.1,8.1,0,0,1,5.009,1.319c2.828,1.989,3.26,5.392,3.26,7.284,0,2.9-.983,5.849-3.476,7.288-1.678.983-3.45,1.007-5.441,1.03H37.579Zm3.164,2.876v11.194h1.343a11.27,11.27,0,0,0,3.953-.385c1.223-.48,2.518-1.534,2.518-5.056,0-1.583-.241-4.17-2.588-5.3-.912-.409-1.414-.435-3.548-.458Z" transform="translate(-11.106 -40.662)" fill="#e30613"></path>
    <path id="Tracé_37" data-name="Tracé 37" d="M72.6,151.822a6.975,6.975,0,0,1-5.847,3.045c-3.14,0-6.16-1.989-6.16-6.4,0-4.025,2.588-6.3,5.968-6.3a5.4,5.4,0,0,1,4.721,2.255,8.978,8.978,0,0,1,1.223,4.671H63.635a3.235,3.235,0,0,0,3.4,2.972,3.5,3.5,0,0,0,3.116-1.653Zm-3.26-4.84a2.566,2.566,0,0,0-2.685-2.518,2.837,2.837,0,0,0-2.922,2.518Zm.7-9.4-2.588,3.189H65.288l1.2-3.189Z" transform="translate(-17.907 -40.662)" fill="#e30613"></path>
    <path id="Tracé_38" data-name="Tracé 38" d="M80.947,144.445H83.8v1.1a4.245,4.245,0,0,1,3.284-1.461c3.522,0,5.439,3.164,5.439,6.471,0,3.571-2.228,6.232-5.439,6.232a4.662,4.662,0,0,1-3.284-1.344v4.89H80.947Zm5.752,9.634c1.39,0,2.9-.959,2.9-3.667,0-3-2.085-3.569-2.947-3.569-1.319,0-2.828.959-2.876,3.523-.047,2.468,1.318,3.712,2.924,3.712" transform="translate(-23.923 -42.583)" fill="#e30613"></path>
    <path id="Tracé_39" data-name="Tracé 39" d="M100.186,147.969a3.888,3.888,0,0,1,.48-1.8c1.15-2.087,4-2.087,4.769-2.087a7.29,7.29,0,0,1,3.595.766c1.414.864,1.437,1.991,1.437,3.285v6.35a2.512,2.512,0,0,0,.528,1.941h-3.4c-.023-.286-.071-.767-.071-.935a5.645,5.645,0,0,1-3.548,1.223c-2.708,0-4.336-1.677-4.336-3.738a3.636,3.636,0,0,1,.383-1.632c.863-1.724,2.708-2.107,3.858-2.323a27.389,27.389,0,0,0,3.715-.886c0-.6-.047-1.823-2.037-1.823a2.558,2.558,0,0,0-2.132.766,1.432,1.432,0,0,0-.287,1.057Zm7.405,2.492a8.252,8.252,0,0,1-2.516.719c-1.031.146-2.4.384-2.4,1.656,0,.934.791,1.413,1.942,1.413a2.966,2.966,0,0,0,2.8-1.391,2.417,2.417,0,0,0,.168-1.079Z" transform="translate(-29.446 -42.583)" fill="#e30613"></path>
    <path id="Tracé_40" data-name="Tracé 40" d="M121.443,144.483v1.7c.36-.623,1.15-2.037,3.835-1.966v2.95a4.384,4.384,0,0,0-2.59.718c-1.222.934-1.245,2.158-1.245,4.146v4.434h-2.78V144.483Z" transform="translate(-35.069 -42.622)" fill="#e30613"></path>
    <path id="Tracé_41" data-name="Tracé 41" d="M134.827,144.88v5.415c0,1.486,0,2.133,1.365,2.133a3.958,3.958,0,0,0,1.2-.144v2.423a11.83,11.83,0,0,1-2.085.19c-.6,0-2.611,0-3.164-1.462a7.813,7.813,0,0,1-.191-2.444V144.88H130.2v-2.063h1.751v-4.24h2.876v4.24h2.564v2.063Z" transform="translate(-38.479 -40.954)" fill="#e30613"></path>
    <path id="Tracé_42" data-name="Tracé 42" d="M154.6,153.743a6.969,6.969,0,0,1-5.848,3.046c-3.139,0-6.158-1.989-6.158-6.4,0-4.026,2.589-6.3,5.967-6.3a5.409,5.409,0,0,1,4.722,2.254,9,9,0,0,1,1.222,4.671h-8.868a3.235,3.235,0,0,0,3.4,2.973,3.5,3.5,0,0,0,3.117-1.653Zm-3.26-4.839a2.565,2.565,0,0,0-2.683-2.517,2.838,2.838,0,0,0-2.924,2.517Z" transform="translate(-42.141 -42.583)" fill="#e30613"></path>
    <path id="Tracé_43" data-name="Tracé 43" d="M162.913,144.444h2.852v1.344a5.148,5.148,0,0,1,3.787-1.7,3.7,3.7,0,0,1,3.331,1.846,4.673,4.673,0,0,1,3.834-1.846,4.151,4.151,0,0,1,3.163,1.224,4.827,4.827,0,0,1,.935,3.57v7.55h-2.852v-6.614c0-1.126.168-3.019-2.013-3.019a2.4,2.4,0,0,0-2.037,1.126,5.179,5.179,0,0,0-.623,2.876v5.632h-2.852v-6.686a5.8,5.8,0,0,0-.1-1.533A1.827,1.827,0,0,0,168.5,146.8a2.577,2.577,0,0,0-2.2,1.388,6.787,6.787,0,0,0-.526,3.236v5.009h-2.852Z" transform="translate(-48.147 -42.583)" fill="#e30613"></path>
    <path id="Tracé_44" data-name="Tracé 44" d="M203.856,153.743a6.971,6.971,0,0,1-5.847,3.046c-3.141,0-6.16-1.989-6.16-6.4,0-4.026,2.587-6.3,5.967-6.3a5.412,5.412,0,0,1,4.723,2.254,8.989,8.989,0,0,1,1.222,4.671h-8.868a3.235,3.235,0,0,0,3.4,2.973,3.5,3.5,0,0,0,3.117-1.653ZM200.6,148.9a2.566,2.566,0,0,0-2.685-2.517,2.836,2.836,0,0,0-2.922,2.517Z" transform="translate(-56.698 -42.583)" fill="#e30613"></path>
    <path id="Tracé_45" data-name="Tracé 45" d="M212.134,144.444h2.9v1.415a3.333,3.333,0,0,1,.934-.933,4.985,4.985,0,0,1,2.757-.84,3.923,3.923,0,0,1,3.139,1.438c.743,1.007.743,2.3.743,3.858v7.047h-2.852v-6.111a8.5,8.5,0,0,0-.1-1.82,1.963,1.963,0,0,0-1.965-1.609,2.527,2.527,0,0,0-2.207,1.343,6.9,6.9,0,0,0-.454,3v5.2h-2.9Z" transform="translate(-62.693 -42.583)" fill="#e30613"></path>
    <path id="Tracé_46" data-name="Tracé 46" d="M234.054,144.88v5.415c0,1.486,0,2.133,1.366,2.133a3.962,3.962,0,0,0,1.2-.144v2.423a11.825,11.825,0,0,1-2.085.19c-.6,0-2.612,0-3.162-1.462a7.758,7.758,0,0,1-.192-2.444V144.88h-1.751v-2.063h1.751v-4.24h2.876v4.24h2.564v2.063Z" transform="translate(-67.804 -40.954)" fill="#e30613"></path>
    <rect id="Rectangle_5" data-name="Rectangle 5" width="32.157" height="32.157" transform="translate(136.842)" fill="#e30613"></rect>
    <path id="Tracé_47" data-name="Tracé 47" d="M226.161,11.827H214.923V.6h-8.855V11.827H194.854v8.855h11.214V31.911h8.855V20.682h11.238Z" transform="translate(-57.587 -0.178)" fill="#fff"></path>
  </g>
</svg>
